<?xml version="1.0" encoding="utf-8"?><svg xmlns="http://www.w3.org/2000/svg" xmlns:xlink="http://www.w3.org/1999/xlink" width="1522" height="684" preserveAspectRatio="xMidYMid" viewBox="0 0 1522 684" style="z-index:1;margin-right:-2px;display:block;background-repeat-y:initial;background-repeat-x:initial;background-color:rgb(255, 255, 255);animation-play-state:paused" ><g transform="translate(761,342) scale(1,1) translate(-761,-342)" style="transform:matrix(1, 0, 0, 1, 0, 0);animation-play-state:paused" ><path id="path0" d="M 45.704716539116504 183.87696166941856
c 0 29.680156068243036 -7.262165846484997 8.525151211091085 -15.787317057576082 8.525151211091085
S 14.130082423964343 213.5571177376616 14.130082423964343 183.87696166941856
s 7.262165846484997 -8.525151211091085 15.787317057576082 -8.525151211091085
S 45.704716539116504 154.19680560117553 45.704716539116504 183.87696166941856
z" fill="none" stroke="none" style="animation-play-state:paused" ></path>


<circle cx="0" cy="0" r="4.596818036320676" fill="#de9dd6" opacity="0.9" transform="translate(15.343042373657227 197.57766723632812)" style="opacity:0.9;animation-play-state:paused" ></circle>
<path id="path1" d="M 340.17947776073106 254.26910522245956
c 0 33.37120705062204 -8.165295342173478 9.585346706029735 -17.750642048203215 9.585346706029735
S 304.6781936643247 287.6403122730816 304.6781936643247 254.26910522245956
s 8.165295342173478 -9.585346706029735 17.750642048203215 -9.585346706029735
S 340.17947776073106 220.8978981718375 340.17947776073106 254.26910522245956
z" fill="none" stroke="none" style="animation-play-state:paused" ></path>


<circle cx="0" cy="0" r="6.621136027155262" fill="#51cacc" opacity="0.9" transform="translate(333.4573669433594 270.60321044921875)" style="opacity:0.9;animation-play-state:paused" ></circle>
<path id="path2" d="M 352.07773151915774 547.0409258377388
c 0 19.270394235515024 -4.715096461881336 5.535113237860699 -10.250209699742035 5.535113237860699
S 331.5773121196737 566.3113200732538 331.5773121196737 547.0409258377388
s 4.715096461881336 -5.535113237860699 10.250209699742035 -5.535113237860699
S 352.07773151915774 527.7705316022237 352.07773151915774 547.0409258377388
z" fill="none" stroke="none" style="animation-play-state:paused" ></path>


<circle cx="0" cy="0" r="4.961462437798774" fill="#ff708e" opacity="0.9" transform="translate(352.0732421875 546.0554809570312)" style="opacity:0.9;animation-play-state:paused" ></circle>
<path id="path3" d="M 790.1113989873173 321.2513318166441
c 0 37.04654935848057 -9.064581226011203 10.641030134882717 -19.70561136089392 10.641030134882717
S 750.7001762655294 358.29788117512464 750.7001762655294 321.2513318166441
s 9.064581226011203 -10.641030134882717 19.70561136089392 -10.641030134882717
S 790.1113989873173 284.20478245816355 790.1113989873173 321.2513318166441
z" fill="none" stroke="none" style="animation-play-state:paused" ></path>


<circle cx="0" cy="0" r="6.5129815484719575" fill="#e0ff77" opacity="0.9" transform="translate(750.7112426757812 323.379150390625)" style="opacity:0.9;animation-play-state:paused" ></circle>
<path id="path4" d="M 1352.323927637694 604.2805480374311
c 0 26.836908636383107 -6.566477645072462 7.708473757258978 -14.274951402331439 7.708473757258978
S 1323.774024833031 631.1174566738142 1323.774024833031 604.2805480374311
s 6.566477645072462 -7.708473757258978 14.274951402331439 -7.708473757258978
S 1352.323927637694 577.443639401048 1352.323927637694 604.2805480374311
z" fill="none" stroke="none" style="animation-play-state:paused" ></path>


<circle cx="0" cy="0" r="5.153550081662568" fill="#ff708e" opacity="0.9" transform="translate(1329.4249267578125 591.3374633789062)" style="opacity:0.9;animation-play-state:paused" ></circle>
<path id="path5" d="M 440.06727314837593 639.9192089037558
c 0 33.771446265277255 -8.263226213844433 9.700309033643467 -17.9635352474879 9.700309033643467
S 404.1402026534001 673.6906551690331 404.1402026534001 639.9192089037558
s 8.263226213844433 -9.700309033643467 17.9635352474879 -9.700309033643467
S 440.06727314837593 606.1477626384785 440.06727314837593 639.9192089037558
z" fill="none" stroke="none" style="animation-play-state:paused" ></path>


<circle cx="0" cy="0" r="7.250334438475039" fill="#de9dd6" opacity="0.9" transform="translate(439.49969482421875 628.0996704101562)" style="opacity:0.9;animation-play-state:paused" ></circle>
<path id="path6" d="M 1422.013368770924 87.28857287095741
c 0 35.80604615865864 -8.761053847331368 10.284715385997695 -19.045769233329064 10.284715385997695
S 1383.9218303042658 123.09461902961604 1383.9218303042658 87.28857287095741
s 8.761053847331368 -10.284715385997695 19.045769233329064 -10.284715385997695
S 1422.013368770924 51.48252671229877 1422.013368770924 87.28857287095741
z" fill="none" stroke="none" style="animation-play-state:paused" ></path>


<circle cx="0" cy="0" r="5.645672347806044" fill="#9df871" opacity="0.9" transform="translate(1383.9814453125 82.5623779296875)" style="opacity:0.9;animation-play-state:paused" ></circle>
<path id="path7" d="M 1004.2580421107743 539.270578401734
c 0 30.66865894595571 -7.504033571882779 8.80908288873196 -16.313116460614737 8.80908288873196
S 971.6318091895448 569.9392373476898 971.6318091895448 539.270578401734
s 7.504033571882779 -8.80908288873196 16.313116460614737 -8.80908288873196
S 1004.2580421107743 508.60191945577833 1004.2580421107743 539.270578401734
z" fill="none" stroke="none" style="animation-play-state:paused" ></path>


<circle cx="0" cy="0" r="5.307788318724317" fill="#de9dd6" opacity="0.9" transform="translate(971.66162109375 536.131591796875)" style="opacity:0.9;animation-play-state:paused" ></circle>
<path id="path8" d="M 112.70691893503009 629.7565077839107
c 0 26.21145061012126 -6.4134400429020095 7.528820919928448 -13.942260962830456 7.528820919928448
S 84.82239700936917 655.9679583940319 84.82239700936917 629.7565077839107
s 6.4134400429020095 -7.528820919928448 13.942260962830456 -7.528820919928448
S 112.70691893503009 603.5450571737895 112.70691893503009 629.7565077839107
z" fill="none" stroke="none" style="animation-play-state:paused" ></path>


<circle cx="0" cy="0" r="5.267257801608021" fill="#51cacc" opacity="0.9" transform="translate(97.72624206542969 637.3992919921875)" style="opacity:0.9;animation-play-state:paused" ></circle>
<path id="path9" d="M 1341.9031978969126 473.0325377674374
c 0 21.330457297469266 -5.219154445125458 6.126833479060321 -11.345987924185778 6.126833479060321
S 1319.2112220485412 494.36299506490667 1319.2112220485412 473.0325377674374
s 5.219154445125458 -6.126833479060321 11.345987924185778 -6.126833479060321
S 1341.9031978969126 451.70208046996817 1341.9031978969126 473.0325377674374
z" fill="none" stroke="none" style="animation-play-state:paused" ></path>


<circle cx="0" cy="0" r="5.901730099166219" fill="#ff708e" opacity="0.9" transform="translate(1322.3111572265625 484.23138427734375)" style="opacity:0.9;animation-play-state:paused" ></circle>
<path id="path10" d="M 1189.2974045186322 85.79831093639035
c 0 36.82080484419009 -9.009345866131616 10.576188625458856 -19.585534491590472 10.576188625458856
S 1150.126335535451 122.61911578058044 1150.126335535451 85.79831093639035
s 9.009345866131616 -10.576188625458856 19.585534491590472 -10.576188625458856
S 1189.2974045186322 48.97750609220026 1189.2974045186322 85.79831093639035
z" fill="none" stroke="none" style="animation-play-state:paused" ></path>


<circle cx="0" cy="0" r="4.802816825433917" fill="#de9dd6" opacity="0.9" transform="translate(1150.1533203125 89.10836791992188)" style="opacity:0.9;animation-play-state:paused" ></circle>
<path id="path11" d="M 509.6152251117867 622.7569467788702
c 0 33.0678554341778 -8.091071010490312 9.49821379492341 -17.589284805413723 9.49821379492341
S 474.4366555009592 655.824802213048 474.4366555009592 622.7569467788702
s 8.091071010490312 -9.49821379492341 17.589284805413723 -9.49821379492341
S 509.6152251117867 589.6890913446924 509.6152251117867 622.7569467788702
z" fill="none" stroke="none" style="animation-play-state:paused" ></path>


<circle cx="0" cy="0" r="7.445442452683076" fill="#51cacc" opacity="0.9" transform="translate(474.8515319824219 633.1452026367188)" style="opacity:0.9;animation-play-state:paused" ></circle>
<path id="path12" d="M 1479.6064432053604 468.31376477725973
c 0 32.482188080807425 -7.947769424027348 9.329990193423411 -17.27775961745076 9.329990193423411
S 1445.0509239704588 500.79595285806715 1445.0509239704588 468.31376477725973
s 7.947769424027348 -9.329990193423411 17.27775961745076 -9.329990193423411
S 1479.6064432053604 435.8315766964523 1479.6064432053604 468.31376477725973
z" fill="none" stroke="none" style="animation-play-state:paused" ></path>


<circle cx="0" cy="0" r="6.329987283380801" fill="#ff708e" opacity="0.9" transform="translate(1467.8653564453125 479.9059143066406)" style="opacity:0.9;animation-play-state:paused" ></circle>
<path id="path13" d="M 378.97634921522484 549.6817592144121
c 0 24.0491390441669 -5.884363808679135 6.907731427579854 -12.792095236258989 6.907731427579854
S 353.39215874270684 573.7308982585789 353.39215874270684 549.6817592144121
s 5.884363808679135 -6.907731427579854 12.792095236258989 -6.907731427579854
S 378.97634921522484 525.6326201702452 378.97634921522484 549.6817592144121
z" fill="none" stroke="none" style="animation-play-state:paused" ></path>


<circle cx="0" cy="0" r="6.059757214729048" fill="#51cacc" opacity="0.9" transform="translate(354.9957275390625 561.974609375)" style="opacity:0.9;animation-play-state:paused" ></circle>
<path id="path14" d="M 208.85488403613516 560.9695440892652
c 0 25.492606949288383 -6.2375527641875825 7.322344549263685 -13.559897313451268 7.322344549263685
S 181.73508940923261 586.4621510385537 181.73508940923261 560.9695440892652
s 6.2375527641875825 -7.322344549263685 13.559897313451268 -7.322344549263685
S 208.85488403613516 535.4769371399768 208.85488403613516 560.9695440892652
z" fill="none" stroke="none" style="animation-play-state:paused" ></path>


<circle cx="0" cy="0" r="5.160735645811212" fill="#de9dd6" opacity="0.9" transform="translate(181.7822265625 557.4424438476562)" style="opacity:0.9;animation-play-state:paused" ></circle>
<path id="path15" d="M 301.96485443356755 144.1180250370504
c 0 20.154421541532525 -4.931401015481361 5.789035974695512 -10.720436990176873 5.789035974695512
S 280.52398045321377 164.2724465785829 280.52398045321377 144.1180250370504
s 4.931401015481361 -5.789035974695512 10.720436990176873 -5.789035974695512
S 301.96485443356755 123.96360349551786 301.96485443356755 144.1180250370504
z" fill="none" stroke="none" style="animation-play-state:paused" ></path>


<circle cx="0" cy="0" r="7.547983716693866" fill="#ff708e" opacity="0.9" transform="translate(280.5465393066406 141.9036865234375)" style="opacity:0.9;animation-play-state:paused" ></circle>
<path id="path16" d="M 1084.7605980173603 153.561566404565
c 0 34.56581098725019 -8.457592050071854 9.928477623997395 -18.38606967406925 9.928477623997395
S 1047.988458669222 188.1273773918152 1047.988458669222 153.561566404565
s 8.457592050071854 -9.928477623997395 18.38606967406925 -9.928477623997395
S 1084.7605980173603 118.99575541731483 1084.7605980173603 153.561566404565
z" fill="none" stroke="none" style="animation-play-state:paused" ></path>


<circle cx="0" cy="0" r="7.821250996621006" fill="#ff708e" opacity="0.9" transform="translate(1072.7860107421875 166.286865234375)" style="opacity:0.9;animation-play-state:paused" ></circle>
<path id="path17" d="M 727.7984307389777 398.2110210104862
c 0 22.49676469686974 -5.5045275322128076 6.461836668249819 -11.966364200462626 6.461836668249819
S 703.8657023380524 420.7077857073559 703.8657023380524 398.2110210104862
s 5.5045275322128076 -6.461836668249819 11.966364200462626 -6.461836668249819
S 727.7984307389777 375.7142563136165 727.7984307389777 398.2110210104862
z" fill="none" stroke="none" style="animation-play-state:paused" ></path>


<circle cx="0" cy="0" r="5.556339885438673" fill="#9df871" opacity="0.9" transform="translate(723.2340087890625 387.2251892089844)" style="opacity:0.9;animation-play-state:paused" ></circle>
<path id="path18" d="M 1505.4502924949757 194.9938294931746
c 0 33.057779387287724 -8.088605594761889 9.495319611242218 -17.583925206004107 9.495319611242218
S 1470.2824420829675 228.0516088804623 1470.2824420829675 194.9938294931746
s 8.088605594761889 -9.495319611242218 17.583925206004107 -9.495319611242218
S 1505.4502924949757 161.93605010588686 1505.4502924949757 194.9938294931746
z" fill="none" stroke="none" style="animation-play-state:paused" ></path>


<circle cx="0" cy="0" r="5.174403317338725" fill="#ff708e" opacity="0.9" transform="translate(1470.4798583984375 187.29925537109375)" style="opacity:0.9;animation-play-state:paused" ></circle>
<path id="path19" d="M 740.3034502013535 71.1950735925551
c 0 22.925114082072838 -5.609336424336971 6.58487319378688 -12.19420961812385 6.58487319378688
S 715.9150309651058 94.12018767462794 715.9150309651058 71.1950735925551
s 5.609336424336971 -6.58487319378688 12.19420961812385 -6.58487319378688
S 740.3034502013535 48.269959510482266 740.3034502013535 71.1950735925551
z" fill="none" stroke="none" style="animation-play-state:paused" ></path>


<circle cx="0" cy="0" r="4.99519211541468" fill="#9df871" opacity="0.9" transform="translate(739.911865234375 79.26539611816406)" style="opacity:0.9;animation-play-state:paused" ></circle>
<path id="path20" d="M 647.4621493229627 221.99885066725764
c 0 23.72001393478496 -5.8038331968090855 6.813195491906319 -12.617028688715404 6.813195491906319
S 622.2280919455318 245.7188646020426 622.2280919455318 221.99885066725764
s 5.8038331968090855 -6.813195491906319 12.617028688715404 -6.813195491906319
S 647.4621493229627 198.27883673247268 647.4621493229627 221.99885066725764
z" fill="none" stroke="none" style="animation-play-state:paused" ></path>


<circle cx="0" cy="0" r="7.649259841196741" fill="#de9dd6" opacity="0.9" transform="translate(633.7275390625 228.95687866210938)" style="opacity:0.9;animation-play-state:paused" ></circle>
<path id="path21" d="M 1077.971936271509 97.04585397531866
c 0 30.98505131677343 -7.581448726444561 8.899961548434922 -16.481410274879483 8.899961548434922
S 1045.0091157217503 128.0309052920921 1045.0091157217503 97.04585397531866
s 7.581448726444561 -8.899961548434922 16.481410274879483 -8.899961548434922
S 1077.971936271509 66.06080265854524 1077.971936271509 97.04585397531866
z" fill="none" stroke="none" style="animation-play-state:paused" ></path>


<circle cx="0" cy="0" r="7.374326859868524" fill="#ff708e" opacity="0.9" transform="translate(1060.550537109375 106.02555084228516)" style="opacity:0.9;animation-play-state:paused" ></circle>
<path id="path22" d="M 712.9164663540304 570.8074037759125
c 0 36.214761880488446 -8.861058757991852 10.402112455033915 -19.263171213025768 10.402112455033915
S 674.3901239279788 607.022165656401 674.3901239279788 570.8074037759125
s 8.861058757991852 -10.402112455033915 19.263171213025768 -10.402112455033915
S 712.9164663540304 534.592641895424 712.9164663540304 570.8074037759125
z" fill="none" stroke="none" style="animation-play-state:paused" ></path>


<circle cx="0" cy="0" r="6.648617227449535" fill="#e0ff77" opacity="0.9" transform="translate(679.8764038085938 589.716552734375)" style="opacity:0.9;animation-play-state:paused" ></circle>
<path id="path23" d="M 1517.481720089604 296.44522370411784
c 0 28.645587466533136 -7.0090267205347025 8.227987889323348 -15.23701460985805 8.227987889323348
S 1487.007690869888 325.09081117065097 1487.007690869888 296.44522370411784
s 7.0090267205347025 -8.227987889323348 15.23701460985805 -8.227987889323348
S 1517.481720089604 267.7996362375847 1517.481720089604 296.44522370411784
z" fill="none" stroke="none" style="animation-play-state:paused" ></path>


<circle cx="0" cy="0" r="5.044670192888045" fill="#ff708e" opacity="0.9" transform="translate(1515.974609375 310.465576171875)" style="opacity:0.9;animation-play-state:paused" ></circle>
<path id="path24" d="M 443.0405854684579 161.6986352651283
c 0 32.0899724207378 -7.851801762520951 9.217332503828944 -17.069134266349895 9.217332503828944
S 408.90231693575805 193.7886076858661 408.90231693575805 161.6986352651283
s 7.851801762520951 -9.217332503828944 17.069134266349895 -9.217332503828944
S 443.0405854684579 129.6086628443905 443.0405854684579 161.6986352651283
z" fill="none" stroke="none" style="animation-play-state:paused" ></path>


<circle cx="0" cy="0" r="6.943626825020177" fill="#de9dd6" opacity="0.9" transform="translate(413.68890380859375 144.9069366455078)" style="opacity:0.9;animation-play-state:paused" ></circle>
<path id="path25" d="M 897.1016390172753 336.6510948092829
c 0 28.969086761380776 -7.088180803316572 8.320907899545542 -15.409088702862114 8.320907899545542
S 866.2834616115509 365.62018157066365 866.2834616115509 336.6510948092829
s 7.088180803316572 -8.320907899545542 15.409088702862114 -8.320907899545542
S 897.1016390172753 307.6820080479021 897.1016390172753 336.6510948092829
z" fill="none" stroke="none" style="animation-play-state:paused" ></path>


<circle cx="0" cy="0" r="4.211517828368168" fill="#de9dd6" opacity="0.9" transform="translate(881.2518310546875 344.9912109375)" style="opacity:0.9;animation-play-state:paused" ></circle>
<path id="path26" d="M 551.4228734429304 594.7141655714283
c 0 19.097334969217194 -4.6727521733191 5.4854047252006835 -10.158156898519783 5.4854047252006835
S 531.1065596458908 613.8115005406455 531.1065596458908 594.7141655714283
s 4.6727521733191 -5.4854047252006835 10.158156898519783 -5.4854047252006835
S 551.4228734429304 575.6168306022112 551.4228734429304 594.7141655714283
z" fill="none" stroke="none" style="animation-play-state:paused" ></path>


<circle cx="0" cy="0" r="5.569032366367877" fill="#de9dd6" opacity="0.9" transform="translate(531.1373291015625 597.2010498046875)" style="opacity:0.9;animation-play-state:paused" ></circle>
<path id="path27" d="M 615.5142106027666 453.21811400588786
c 0 29.5997007903545 -7.242479980618653 8.50204171637842 -15.744521696997074 8.50204171637842
S 584.0251672087726 482.8178147962424 584.0251672087726 453.21811400588786
s 7.242479980618653 -8.50204171637842 15.744521696997074 -8.50204171637842
S 615.5142106027666 423.61841321553334 615.5142106027666 453.21811400588786
z" fill="none" stroke="none" style="animation-play-state:paused" ></path>


<circle cx="0" cy="0" r="7.47752539035704" fill="#51cacc" opacity="0.9" transform="translate(593.9542846679688 442.06719970703125)" style="opacity:0.9;animation-play-state:paused" ></circle>
<path id="path28" d="M 1162.0013152474464 638.3744896037189
c 0 29.154701116699083 -7.13359708174552 8.374222661179525 -15.507819742925044 8.374222661179525
S 1130.9856757615964 667.529190720418 1130.9856757615964 638.3744896037189
s 7.13359708174552 -8.374222661179525 15.507819742925044 -8.374222661179525
S 1162.0013152474464 609.2197884870197 1162.0013152474464 638.3744896037189
z" fill="none" stroke="none" style="animation-play-state:paused" ></path>


<circle cx="0" cy="0" r="5.8135723289663845" fill="#de9dd6" opacity="0.9" transform="translate(1151.611328125 648.8882446289062)" style="opacity:0.9;animation-play-state:paused" ></circle>
<path id="path29" d="M 148.0594673036249 505.2661039811366
c 0 19.665321230501544 -4.811727535122718 5.6485497151440605 -10.460277250266778 5.6485497151440605
S 127.13891280309133 524.9314252116382 127.13891280309133 505.2661039811366
s 4.811727535122718 -5.6485497151440605 10.460277250266778 -5.6485497151440605
S 148.0594673036249 485.60078275063506 148.0594673036249 505.2661039811366
z" fill="none" stroke="none" style="animation-play-state:paused" ></path>


<circle cx="0" cy="0" r="7.51919115752562" fill="#ff708e" opacity="0.9" transform="translate(127.36920928955078 511.2802734375)" style="opacity:0.9;animation-play-state:paused" ></circle></g></svg>