<svg xmlns="http://www.w3.org/2000/svg" version="1.1" xmlns:xlink="http://www.w3.org/1999/xlink" xmlns:svgjs="http://svgjs.dev/svgjs" width="1000" height="328" viewBox="0 0 1000 328"><g transform="matrix(1,0,0,1,0.10666666666668334,-0.07719999999994798)"><svg viewBox="0 0 375 123" data-background-color="#ffffff" preserveAspectRatio="xMidYMid meet" height="328" width="1000" xmlns="http://www.w3.org/2000/svg" xmlns:xlink="http://www.w3.org/1999/xlink"><defs></defs><g id="tight-bounds" transform="matrix(1,0,0,1,-0.03976000000000113,0.02894999999998049)"><svg viewBox="0 0 375.07953 122.94165000000007" height="122.94165000000007" width="375.07953"><g><svg></svg></g><g><svg viewBox="0 0 375.07953 122.94165000000007" height="122.94165000000007" width="375.07953"><g transform="matrix(1,0,0,1,-10.22024,-64.87389999999999)"><path d="M10.22 182.326v-117.452h375.08v117.452l-69.156 0 0-3.861h65.295v-109.73h-367.358v109.73h27.766l0 3.861z" fill="#733eb0" data-fill-palette-color="tertiary"></path><path d="M63.238 181.445l0.832 1.792c-0.145 0.109-0.346 0.226-0.604 0.351-0.261 0.128-0.566 0.246-0.916 0.355-0.35 0.109-0.738 0.199-1.166 0.271-0.429 0.072-0.886 0.109-1.368 0.109v0c-1.026 0-1.945-0.177-2.758-0.532-0.816-0.357-1.507-0.837-2.074-1.441-0.567-0.603-1.001-1.303-1.303-2.099-0.302-0.796-0.452-1.641-0.452-2.534v0c0-0.989 0.179-1.9 0.536-2.732 0.355-0.832 0.84-1.55 1.455-2.154 0.615-0.603 1.337-1.074 2.164-1.411 0.825-0.338 1.702-0.507 2.631-0.507v0c0.35 0 0.706 0.024 1.068 0.072 0.362 0.048 0.703 0.115 1.024 0.199 0.319 0.084 0.602 0.183 0.851 0.297 0.246 0.116 0.436 0.234 0.568 0.355v0c-0.097 0.145-0.171 0.265-0.224 0.362-0.056 0.097-0.113 0.197-0.174 0.3-0.06 0.101-0.127 0.218-0.199 0.351-0.072 0.133-0.169 0.308-0.29 0.525v0c-0.157-0.109-0.34-0.199-0.55-0.271-0.212-0.072-0.433-0.133-0.662-0.181-0.229-0.048-0.461-0.084-0.695-0.109-0.236-0.024-0.451-0.036-0.644-0.036v0c-0.7 0-1.348 0.129-1.944 0.387-0.598 0.261-1.115 0.61-1.549 1.05-0.434 0.442-0.775 0.952-1.021 1.531-0.249 0.579-0.373 1.182-0.372 1.81v0c0 0.615 0.118 1.206 0.354 1.773 0.234 0.567 0.56 1.074 0.978 1.52 0.415 0.446 0.916 0.802 1.502 1.068 0.584 0.265 1.226 0.398 1.925 0.398v0c0.374 0 0.736-0.036 1.086-0.109 0.35-0.072 0.667-0.157 0.952-0.253 0.282-0.097 0.518-0.193 0.706-0.289 0.186-0.097 0.297-0.169 0.333-0.218zM69.771 176.414l-0.344 1.991c-0.338 0-0.664 0.045-0.977 0.134-0.314 0.092-0.594 0.228-0.84 0.409-0.249 0.181-0.445 0.407-0.59 0.677-0.145 0.273-0.217 0.584-0.217 0.934v0 3.619h-1.539v-7.565h1.358c0.024 0.374 0.046 0.715 0.065 1.025 0.017 0.306 0.037 0.61 0.061 0.912v0c0.157-0.326 0.362-0.621 0.616-0.887 0.253-0.265 0.525-0.489 0.814-0.669 0.29-0.181 0.573-0.323 0.851-0.428 0.277-0.101 0.525-0.152 0.742-0.152zM75.996 182.169l1.158 1.122c-0.362 0.326-0.802 0.585-1.321 0.778-0.519 0.193-1.05 0.29-1.592 0.29v0c-0.555 0-1.076-0.106-1.564-0.319-0.49-0.21-0.916-0.493-1.278-0.85-0.362-0.355-0.648-0.773-0.857-1.256-0.212-0.483-0.319-0.995-0.319-1.538v0c0-0.543 0.106-1.056 0.319-1.539 0.21-0.483 0.496-0.905 0.857-1.266 0.362-0.362 0.782-0.649 1.26-0.862 0.475-0.21 0.984-0.315 1.527-0.315v0c0.857 0 1.602 0.256 2.237 0.768 0.632 0.514 1.087 1.187 1.365 2.019v0c-0.374 0.133-0.802 0.296-1.285 0.489-0.483 0.193-0.983 0.395-1.502 0.604-0.519 0.212-1.038 0.421-1.557 0.627-0.519 0.205-1.001 0.392-1.447 0.561v0c0.205 0.41 0.504 0.738 0.897 0.984 0.391 0.249 0.828 0.373 1.31 0.373v0c0.326 0 0.655-0.06 0.989-0.181 0.331-0.121 0.598-0.284 0.803-0.489zM75.851 178.839v0c-0.145-0.302-0.374-0.528-0.687-0.68-0.314-0.15-0.633-0.224-0.96-0.224v0c-0.35 0-0.672 0.066-0.966 0.199-0.297 0.133-0.554 0.31-0.771 0.532-0.217 0.224-0.388 0.481-0.514 0.771-0.128 0.29-0.192 0.585-0.192 0.886v0c0 0.06 0.004 0.103 0.011 0.127 0.005 0.024 0.007 0.042 0.007 0.054v0c0.314-0.121 0.655-0.257 1.025-0.409 0.367-0.15 0.731-0.3 1.093-0.452 0.362-0.15 0.712-0.294 1.049-0.434 0.338-0.138 0.639-0.261 0.905-0.37zM78.602 180.468v0c0-0.555 0.106-1.077 0.319-1.567 0.21-0.487 0.496-0.916 0.857-1.285 0.362-0.367 0.782-0.659 1.26-0.876 0.475-0.217 0.984-0.326 1.527-0.326v0c0.362 0 0.694 0.045 0.996 0.134 0.302 0.092 0.561 0.204 0.778 0.337 0.217 0.133 0.392 0.271 0.525 0.416 0.133 0.145 0.223 0.271 0.271 0.38v0l0.072-1.068h1.484v7.565h-1.556v-0.959c-0.06 0.097-0.157 0.211-0.29 0.344-0.133 0.133-0.304 0.256-0.513 0.369-0.212 0.116-0.463 0.216-0.753 0.3-0.29 0.084-0.621 0.127-0.996 0.127v0c-0.579 0-1.112-0.106-1.599-0.318-0.49-0.21-0.91-0.493-1.26-0.851-0.35-0.355-0.624-0.767-0.822-1.238-0.2-0.471-0.3-0.965-0.3-1.484zM80.158 180.378v0c0 0.35 0.064 0.676 0.192 0.977 0.125 0.302 0.297 0.561 0.514 0.778 0.217 0.217 0.477 0.388 0.778 0.514 0.302 0.128 0.633 0.192 0.996 0.192v0c0.362 0 0.697-0.064 1.006-0.192 0.306-0.125 0.572-0.3 0.796-0.525 0.222-0.222 0.393-0.481 0.514-0.778 0.121-0.294 0.181-0.617 0.181-0.966v0c0-0.35-0.06-0.673-0.181-0.97-0.121-0.294-0.292-0.55-0.514-0.768-0.224-0.217-0.49-0.39-0.796-0.517-0.309-0.125-0.644-0.188-1.006-0.188v0c-0.362 0-0.694 0.063-0.996 0.188-0.302 0.128-0.561 0.3-0.778 0.517-0.217 0.217-0.388 0.473-0.514 0.768-0.128 0.297-0.192 0.62-0.192 0.97zM89.515 176.632v-3.348h1.538v3.348h2.027v1.375h-2.027v6.171h-1.538v-6.171h-1.358v-1.375zM94.165 173.718v0c0-0.29 0.106-0.531 0.319-0.724 0.21-0.193 0.436-0.29 0.677-0.289v0c0.241 0 0.464 0.097 0.669 0.289 0.205 0.193 0.308 0.434 0.308 0.724v0c0 0.29-0.103 0.527-0.308 0.713-0.205 0.188-0.428 0.282-0.669 0.282v0c-0.241 0-0.467-0.094-0.677-0.282-0.212-0.186-0.319-0.423-0.319-0.713zM95.903 176.613v7.565h-1.538v-7.565zM98.074 184.178v-7.565h1.358c0.024 0.374 0.046 0.715 0.065 1.025 0.017 0.306 0.037 0.61 0.061 0.912v0c0.277-0.651 0.673-1.17 1.188-1.556 0.512-0.386 1.141-0.579 1.889-0.58v0c0.76 0 1.369 0.211 1.828 0.634 0.458 0.422 0.7 0.965 0.724 1.629v0 5.501h-1.557v-4.796c-0.024-0.386-0.157-0.715-0.398-0.988-0.241-0.27-0.621-0.417-1.14-0.441v0c-0.362 0-0.694 0.063-0.995 0.188-0.302 0.128-0.561 0.3-0.779 0.517-0.217 0.217-0.388 0.477-0.513 0.779-0.128 0.302-0.192 0.633-0.192 0.995v0 3.746zM106.779 180.414v0c0-0.567 0.103-1.095 0.308-1.585 0.205-0.487 0.483-0.91 0.832-1.267 0.35-0.355 0.76-0.635 1.231-0.84 0.471-0.205 0.971-0.308 1.502-0.308v0c0.41 0 0.775 0.054 1.093 0.163 0.321 0.109 0.59 0.235 0.807 0.38 0.217 0.145 0.388 0.286 0.514 0.424 0.128 0.14 0.21 0.24 0.246 0.3v0c0-0.169 0.012-0.347 0.036-0.535 0.024-0.186 0.036-0.363 0.037-0.533v0h1.483v7.221c0 1.255-0.368 2.232-1.103 2.932-0.736 0.7-1.731 1.05-2.986 1.05v0c-0.434 0-0.823-0.045-1.166-0.134-0.345-0.092-0.66-0.21-0.945-0.355-0.282-0.145-0.54-0.314-0.774-0.507-0.236-0.193-0.469-0.392-0.699-0.597v0l0.996-1.05c0.374 0.35 0.758 0.627 1.151 0.833 0.391 0.205 0.858 0.308 1.4 0.307v0c0.808 0 1.436-0.193 1.882-0.579 0.446-0.386 0.676-0.923 0.688-1.61v0-0.525c0-0.097 0.012-0.203 0.036-0.319 0.024-0.113 0.036-0.2 0.037-0.26v0c-0.109 0.145-0.245 0.298-0.409 0.459-0.162 0.164-0.351 0.309-0.569 0.435-0.217 0.128-0.471 0.234-0.76 0.318-0.29 0.084-0.615 0.127-0.977 0.127v0c-0.567 0-1.086-0.103-1.556-0.308-0.471-0.205-0.881-0.486-1.231-0.843-0.35-0.355-0.621-0.771-0.814-1.249-0.193-0.475-0.29-0.991-0.29-1.545zM108.335 180.378v0c0 0.35 0.064 0.676 0.192 0.977 0.125 0.302 0.297 0.561 0.514 0.778 0.217 0.217 0.477 0.388 0.778 0.514 0.302 0.128 0.633 0.192 0.996 0.192v0c0.362 0 0.697-0.064 1.006-0.192 0.306-0.125 0.571-0.3 0.793-0.525 0.224-0.222 0.397-0.481 0.517-0.778 0.121-0.294 0.181-0.617 0.181-0.966v0c0-0.35-0.06-0.673-0.181-0.97-0.121-0.294-0.293-0.55-0.517-0.768-0.222-0.217-0.486-0.39-0.793-0.517-0.309-0.125-0.644-0.188-1.006-0.188v0c-0.362 0-0.694 0.063-0.996 0.188-0.302 0.128-0.561 0.3-0.778 0.517-0.217 0.217-0.388 0.473-0.514 0.768-0.128 0.297-0.192 0.62-0.192 0.97zM117.456 182.604h1.665l-1.592 3.764h-1.484c0.241-0.627 0.477-1.251 0.706-1.871 0.229-0.623 0.464-1.254 0.705-1.893zM124.279 184.178v-13.699c0.109 0.169 0.334 0.491 0.677 0.966 0.345 0.478 0.744 1.03 1.198 1.658 0.451 0.627 0.93 1.293 1.437 1.998 0.507 0.707 0.983 1.371 1.429 1.99 0.446 0.623 0.836 1.163 1.169 1.622 0.331 0.458 0.55 0.76 0.659 0.905v0c0.036-0.06 0.151-0.223 0.344-0.489 0.193-0.265 0.432-0.597 0.717-0.995 0.282-0.398 0.604-0.848 0.966-1.35 0.362-0.499 0.734-1.012 1.115-1.539 0.379-0.524 0.753-1.045 1.122-1.563 0.367-0.519 0.707-0.993 1.021-1.423 0.314-0.427 0.583-0.8 0.807-1.118 0.222-0.321 0.381-0.542 0.477-0.662v0 13.699h-2.099v-7.347c0-0.097 0.01-0.199 0.029-0.308 0.017-0.109 0.025-0.187 0.025-0.235v0c-0.109 0.145-0.28 0.388-0.514 0.731-0.236 0.345-0.508 0.737-0.814 1.176-0.309 0.442-0.632 0.906-0.97 1.394-0.338 0.49-0.658 0.952-0.959 1.386-0.302 0.434-0.567 0.817-0.796 1.147-0.229 0.333-0.386 0.566-0.471 0.699v0c-0.084-0.109-0.251-0.335-0.499-0.681-0.246-0.343-0.536-0.743-0.869-1.201-0.331-0.458-0.679-0.947-1.046-1.466-0.369-0.519-0.711-1.001-1.024-1.448-0.314-0.446-0.585-0.83-0.815-1.151-0.229-0.319-0.362-0.514-0.398-0.586v0c0 0.048 0.008 0.127 0.026 0.235 0.019 0.109 0.029 0.211 0.029 0.308v0 7.347zM139.227 180.468v0c0-0.555 0.106-1.077 0.319-1.567 0.21-0.487 0.496-0.916 0.857-1.285 0.362-0.367 0.781-0.659 1.256-0.876 0.478-0.217 0.988-0.326 1.531-0.326v0c0.362 0 0.694 0.045 0.996 0.134 0.302 0.092 0.561 0.204 0.778 0.337 0.217 0.133 0.392 0.271 0.525 0.416 0.133 0.145 0.223 0.271 0.271 0.38v0l0.073-1.068h1.484v7.565h-1.557v-0.959c-0.06 0.097-0.157 0.211-0.289 0.344-0.133 0.133-0.305 0.256-0.518 0.369-0.21 0.116-0.46 0.216-0.749 0.3-0.29 0.084-0.621 0.127-0.996 0.127v0c-0.579 0-1.114-0.106-1.603-0.318-0.487-0.21-0.906-0.493-1.256-0.851-0.35-0.355-0.625-0.767-0.825-1.238-0.198-0.471-0.297-0.965-0.297-1.484zM140.783 180.378v0c0 0.35 0.063 0.676 0.189 0.977 0.128 0.302 0.3 0.561 0.517 0.778 0.217 0.217 0.477 0.388 0.778 0.514 0.302 0.128 0.633 0.192 0.996 0.192v0c0.362 0 0.696-0.064 1.002-0.192 0.309-0.125 0.575-0.3 0.8-0.525 0.222-0.222 0.393-0.481 0.514-0.778 0.121-0.294 0.181-0.617 0.181-0.966v0c0-0.35-0.06-0.673-0.181-0.97-0.121-0.294-0.292-0.55-0.514-0.768-0.224-0.217-0.491-0.39-0.8-0.517-0.306-0.125-0.641-0.188-1.002-0.188v0c-0.362 0-0.694 0.063-0.996 0.188-0.302 0.128-0.561 0.3-0.778 0.517-0.217 0.217-0.39 0.473-0.517 0.768-0.125 0.297-0.188 0.62-0.189 0.97zM149.488 184.178v-7.565h1.357c0.024 0.374 0.045 0.715 0.062 1.025 0.019 0.306 0.041 0.61 0.065 0.912v0c0.277-0.651 0.672-1.17 1.184-1.556 0.514-0.386 1.145-0.579 1.893-0.58v0c0.76 0 1.369 0.211 1.827 0.634 0.458 0.422 0.7 0.965 0.724 1.629v0 5.501h-1.556v-4.796c-0.024-0.386-0.157-0.715-0.398-0.988-0.241-0.27-0.621-0.417-1.14-0.441v0c-0.362 0-0.694 0.063-0.996 0.188-0.302 0.128-0.561 0.3-0.778 0.517-0.217 0.217-0.39 0.477-0.517 0.779-0.125 0.302-0.188 0.633-0.189 0.995v0 3.746zM158.175 180.468v0c0-0.555 0.105-1.077 0.315-1.567 0.212-0.487 0.499-0.916 0.861-1.285 0.362-0.367 0.781-0.659 1.256-0.876 0.478-0.217 0.988-0.326 1.531-0.326v0c0.362 0 0.694 0.045 0.995 0.134 0.302 0.092 0.561 0.204 0.779 0.337 0.217 0.133 0.392 0.271 0.524 0.416 0.133 0.145 0.223 0.271 0.272 0.38v0l0.072-1.068h1.484v7.565h-1.556v-0.959c-0.06 0.097-0.157 0.211-0.29 0.344-0.133 0.133-0.305 0.256-0.517 0.369-0.21 0.116-0.46 0.216-0.75 0.3-0.29 0.084-0.621 0.127-0.995 0.127v0c-0.579 0-1.114-0.106-1.603-0.318-0.487-0.21-0.906-0.493-1.256-0.851-0.35-0.355-0.625-0.767-0.825-1.238-0.198-0.471-0.297-0.965-0.297-1.484zM159.731 180.378v0c0 0.35 0.063 0.676 0.188 0.977 0.128 0.302 0.3 0.561 0.518 0.778 0.217 0.217 0.477 0.388 0.778 0.514 0.302 0.128 0.633 0.192 0.995 0.192v0c0.362 0 0.696-0.064 1.003-0.192 0.309-0.125 0.574-0.3 0.796-0.525 0.224-0.222 0.397-0.481 0.518-0.778 0.121-0.294 0.181-0.617 0.181-0.966v0c0-0.35-0.06-0.673-0.181-0.97-0.121-0.294-0.293-0.55-0.518-0.768-0.222-0.217-0.487-0.39-0.796-0.517-0.306-0.125-0.641-0.188-1.003-0.188v0c-0.362 0-0.694 0.063-0.995 0.188-0.302 0.128-0.561 0.3-0.778 0.517-0.217 0.217-0.39 0.473-0.518 0.768-0.125 0.297-0.188 0.62-0.188 0.97zM167.929 180.414v0c0-0.567 0.103-1.095 0.308-1.585 0.205-0.487 0.483-0.91 0.832-1.267 0.35-0.355 0.76-0.635 1.231-0.84 0.471-0.205 0.971-0.308 1.502-0.308v0c0.41 0 0.775 0.054 1.093 0.163 0.321 0.109 0.59 0.235 0.807 0.38 0.217 0.145 0.388 0.286 0.514 0.424 0.128 0.14 0.21 0.24 0.246 0.3v0c0-0.169 0.012-0.347 0.036-0.535 0.024-0.186 0.036-0.363 0.036-0.533v0h1.484v7.221c0 1.255-0.368 2.232-1.103 2.932-0.736 0.7-1.731 1.05-2.987 1.05v0c-0.434 0-0.824-0.045-1.169-0.134-0.343-0.092-0.656-0.21-0.941-0.355-0.282-0.145-0.542-0.314-0.778-0.507-0.234-0.193-0.466-0.392-0.695-0.597v0l0.996-1.05c0.374 0.35 0.756 0.627 1.147 0.833 0.393 0.205 0.861 0.308 1.404 0.307v0c0.808 0 1.436-0.193 1.882-0.579 0.446-0.386 0.676-0.923 0.688-1.61v0-0.525c0-0.097 0.012-0.203 0.036-0.319 0.024-0.113 0.036-0.2 0.036-0.26v0c-0.109 0.145-0.245 0.298-0.409 0.459-0.162 0.164-0.351 0.309-0.568 0.435-0.217 0.128-0.471 0.234-0.76 0.318-0.29 0.084-0.615 0.127-0.977 0.127v0c-0.567 0-1.086-0.103-1.556-0.308-0.471-0.205-0.881-0.486-1.231-0.843-0.35-0.355-0.621-0.771-0.814-1.249-0.193-0.475-0.29-0.991-0.29-1.545zM169.485 180.378v0c0 0.35 0.063 0.676 0.189 0.977 0.128 0.302 0.3 0.561 0.517 0.778 0.217 0.217 0.477 0.388 0.778 0.514 0.302 0.128 0.633 0.192 0.996 0.192v0c0.362 0 0.696-0.064 1.002-0.192 0.309-0.125 0.574-0.3 0.797-0.525 0.224-0.222 0.397-0.481 0.517-0.778 0.121-0.294 0.181-0.617 0.181-0.966v0c0-0.35-0.06-0.673-0.181-0.97-0.121-0.294-0.293-0.55-0.517-0.768-0.222-0.217-0.487-0.39-0.797-0.517-0.306-0.125-0.641-0.188-1.002-0.188v0c-0.362 0-0.694 0.063-0.996 0.188-0.302 0.128-0.561 0.3-0.778 0.517-0.217 0.217-0.39 0.473-0.517 0.768-0.125 0.297-0.188 0.62-0.189 0.97zM177.991 173.718v0c0-0.29 0.105-0.531 0.315-0.724 0.212-0.193 0.439-0.29 0.68-0.289v0c0.241 0 0.464 0.097 0.67 0.289 0.205 0.193 0.308 0.434 0.308 0.724v0c0 0.29-0.103 0.527-0.308 0.713-0.205 0.188-0.428 0.282-0.67 0.282v0c-0.241 0-0.468-0.094-0.68-0.282-0.21-0.186-0.315-0.423-0.315-0.713zM179.728 176.613v7.565h-1.538v-7.565zM181.9 184.178v-7.565h1.357c0.024 0.374 0.045 0.715 0.062 1.025 0.019 0.306 0.041 0.61 0.065 0.912v0c0.277-0.651 0.672-1.17 1.183-1.556 0.514-0.386 1.145-0.579 1.893-0.58v0c0.76 0 1.369 0.211 1.828 0.634 0.458 0.422 0.7 0.965 0.724 1.629v0 5.501h-1.556v-4.796c-0.024-0.386-0.157-0.715-0.398-0.988-0.241-0.27-0.621-0.417-1.14-0.441v0c-0.362 0-0.694 0.063-0.996 0.188-0.302 0.128-0.561 0.3-0.778 0.517-0.217 0.217-0.39 0.477-0.518 0.779-0.125 0.302-0.188 0.633-0.188 0.995v0 3.746zM190.605 180.414v0c0-0.567 0.103-1.095 0.307-1.585 0.205-0.487 0.483-0.91 0.833-1.267 0.35-0.355 0.76-0.635 1.23-0.84 0.471-0.205 0.971-0.308 1.502-0.308v0c0.41 0 0.775 0.054 1.093 0.163 0.321 0.109 0.59 0.235 0.808 0.38 0.217 0.145 0.388 0.286 0.514 0.424 0.128 0.14 0.21 0.24 0.246 0.3v0c0-0.169 0.012-0.347 0.036-0.535 0.024-0.186 0.036-0.363 0.036-0.533v0h1.484v7.221c0 1.255-0.368 2.232-1.104 2.932-0.736 0.7-1.731 1.05-2.986 1.05v0c-0.434 0-0.824-0.045-1.169-0.134-0.343-0.092-0.656-0.21-0.941-0.355-0.282-0.145-0.542-0.314-0.778-0.507-0.234-0.193-0.466-0.392-0.695-0.597v0l0.995-1.05c0.374 0.35 0.756 0.627 1.148 0.833 0.393 0.205 0.861 0.308 1.404 0.307v0c0.808 0 1.436-0.193 1.882-0.579 0.446-0.386 0.676-0.923 0.688-1.61v0-0.525c0-0.097 0.012-0.203 0.036-0.319 0.024-0.113 0.036-0.2 0.036-0.26v0c-0.109 0.145-0.245 0.298-0.409 0.459-0.162 0.164-0.351 0.309-0.568 0.435-0.217 0.128-0.471 0.234-0.76 0.318-0.29 0.084-0.615 0.127-0.977 0.127v0c-0.567 0-1.086-0.103-1.557-0.308-0.471-0.205-0.881-0.486-1.23-0.843-0.35-0.355-0.621-0.771-0.815-1.249-0.193-0.475-0.29-0.991-0.289-1.545zM192.161 180.378v0c0 0.35 0.063 0.676 0.188 0.977 0.128 0.302 0.3 0.561 0.518 0.778 0.217 0.217 0.477 0.388 0.778 0.514 0.302 0.128 0.633 0.192 0.995 0.192v0c0.362 0 0.696-0.064 1.003-0.192 0.309-0.125 0.574-0.3 0.796-0.525 0.224-0.222 0.397-0.481 0.518-0.778 0.121-0.294 0.181-0.617 0.181-0.966v0c0-0.35-0.06-0.673-0.181-0.97-0.121-0.294-0.293-0.55-0.518-0.768-0.222-0.217-0.487-0.39-0.796-0.517-0.306-0.125-0.641-0.188-1.003-0.188v0c-0.362 0-0.694 0.063-0.995 0.188-0.302 0.128-0.561 0.3-0.778 0.517-0.217 0.217-0.39 0.473-0.518 0.768-0.125 0.297-0.188 0.62-0.188 0.97zM211.525 181.373l2.135 2.805h-1.846c-0.097-0.121-0.205-0.247-0.325-0.38v0c-0.097-0.121-0.215-0.263-0.355-0.427-0.138-0.162-0.291-0.345-0.46-0.55v0c-0.386 0.458-0.89 0.829-1.513 1.111-0.62 0.285-1.322 0.427-2.106 0.427v0c-0.627 0-1.204-0.097-1.73-0.29-0.524-0.193-0.976-0.464-1.357-0.814-0.379-0.35-0.674-0.764-0.887-1.241-0.21-0.475-0.315-0.997-0.315-1.564v0c0-0.483 0.078-0.935 0.235-1.357 0.157-0.422 0.374-0.8 0.652-1.133 0.277-0.331 0.603-0.617 0.977-0.858 0.374-0.241 0.784-0.422 1.23-0.543v0c-0.169-0.253-0.32-0.492-0.452-0.716-0.133-0.222-0.247-0.417-0.344-0.587v0c-0.193-0.386-0.35-0.74-0.47-1.06-0.121-0.319-0.181-0.665-0.181-1.039v0c0-0.41 0.081-0.781 0.242-1.111 0.164-0.333 0.387-0.614 0.67-0.844 0.285-0.229 0.617-0.408 0.995-0.535 0.381-0.125 0.783-0.194 1.205-0.207v0c0.579-0.024 1.104 0.042 1.575 0.2 0.471 0.157 0.845 0.332 1.122 0.524v0c0 0-0.046 0.063-0.138 0.189-0.089 0.128-0.186 0.264-0.289 0.409-0.101 0.145-0.198 0.28-0.29 0.405-0.089 0.128-0.134 0.198-0.134 0.21v0c-0.133-0.097-0.296-0.183-0.488-0.261-0.193-0.08-0.416-0.132-0.67-0.155v0c-0.253-0.036-0.507-0.036-0.76 0-0.253 0.036-0.483 0.109-0.688 0.217-0.205 0.109-0.372 0.259-0.499 0.452-0.125 0.193-0.188 0.428-0.188 0.706v0c0 0.326 0.06 0.615 0.181 0.869 0.121 0.253 0.205 0.41 0.253 0.47v0l3.945 5.248 1.375-3.529h1.647zM206.838 177.935v0c-0.326 0.012-0.639 0.081-0.941 0.206-0.302 0.128-0.571 0.3-0.807 0.517-0.234 0.217-0.421 0.473-0.561 0.768-0.138 0.297-0.206 0.608-0.207 0.934v0c0 0.434 0.081 0.805 0.243 1.111 0.164 0.309 0.379 0.566 0.644 0.771 0.265 0.205 0.569 0.356 0.912 0.452 0.345 0.097 0.693 0.145 1.042 0.145v0c0.241 0 0.489-0.03 0.742-0.091 0.253-0.06 0.495-0.142 0.724-0.246 0.229-0.101 0.44-0.224 0.634-0.369 0.193-0.145 0.35-0.302 0.47-0.47v0c-0.458-0.579-0.941-1.192-1.448-1.839-0.507-0.644-0.989-1.274-1.447-1.889zM217.931 184.178v-13.699c0.109 0.169 0.334 0.491 0.677 0.966 0.345 0.478 0.743 1.03 1.194 1.658 0.454 0.627 0.934 1.293 1.441 1.998 0.507 0.707 0.983 1.371 1.43 1.99 0.446 0.623 0.835 1.163 1.165 1.622 0.333 0.458 0.554 0.76 0.662 0.905v0c0.036-0.06 0.151-0.223 0.344-0.489 0.193-0.265 0.431-0.597 0.713-0.995 0.285-0.398 0.608-0.848 0.97-1.35 0.362-0.499 0.732-1.012 1.111-1.539 0.381-0.524 0.755-1.045 1.122-1.563 0.369-0.519 0.711-0.993 1.025-1.423 0.314-0.427 0.582-0.8 0.803-1.118 0.224-0.321 0.385-0.542 0.482-0.662v0 13.699h-2.1v-7.347c0-0.097 0.008-0.199 0.026-0.308 0.019-0.109 0.029-0.187 0.029-0.235v0c-0.109 0.145-0.281 0.388-0.518 0.731-0.234 0.345-0.506 0.737-0.814 1.176-0.306 0.442-0.629 0.906-0.967 1.394-0.338 0.49-0.658 0.952-0.959 1.386-0.302 0.434-0.567 0.817-0.796 1.147-0.229 0.333-0.386 0.566-0.471 0.699v0c-0.084-0.109-0.251-0.335-0.499-0.681-0.246-0.343-0.536-0.743-0.869-1.201-0.331-0.458-0.68-0.947-1.049-1.466-0.367-0.519-0.707-1.001-1.021-1.448-0.314-0.446-0.585-0.83-0.814-1.151-0.229-0.319-0.362-0.514-0.399-0.586v0c0 0.048 0.008 0.127 0.026 0.235 0.019 0.109 0.029 0.211 0.029 0.308v0 7.347zM232.879 180.468v0c0-0.555 0.105-1.077 0.315-1.567 0.212-0.487 0.499-0.916 0.862-1.285 0.362-0.367 0.781-0.659 1.256-0.876 0.478-0.217 0.988-0.326 1.531-0.326v0c0.362 0 0.694 0.045 0.995 0.134 0.302 0.092 0.561 0.204 0.778 0.337 0.217 0.133 0.392 0.271 0.525 0.416 0.133 0.145 0.223 0.271 0.271 0.38v0l0.073-1.068h1.484v7.565h-1.557v-0.959c-0.06 0.097-0.157 0.211-0.289 0.344-0.133 0.133-0.305 0.256-0.518 0.369-0.21 0.116-0.46 0.216-0.749 0.3-0.29 0.084-0.621 0.127-0.995 0.127v0c-0.579 0-1.114-0.106-1.604-0.318-0.487-0.21-0.906-0.493-1.256-0.851-0.35-0.355-0.625-0.767-0.825-1.238-0.198-0.471-0.297-0.965-0.297-1.484zM234.436 180.378v0c0 0.35 0.063 0.676 0.188 0.977 0.128 0.302 0.3 0.561 0.518 0.778 0.217 0.217 0.477 0.388 0.778 0.514 0.302 0.128 0.633 0.192 0.995 0.192v0c0.362 0 0.696-0.064 1.003-0.192 0.309-0.125 0.574-0.3 0.796-0.525 0.224-0.222 0.397-0.481 0.517-0.778 0.121-0.294 0.181-0.617 0.181-0.966v0c0-0.35-0.06-0.673-0.181-0.97-0.121-0.294-0.293-0.55-0.517-0.768-0.222-0.217-0.487-0.39-0.796-0.517-0.306-0.125-0.641-0.188-1.003-0.188v0c-0.362 0-0.694 0.063-0.995 0.188-0.302 0.128-0.561 0.3-0.778 0.517-0.217 0.217-0.39 0.473-0.518 0.768-0.125 0.297-0.188 0.62-0.188 0.97zM242.941 173.718v0c0-0.29 0.105-0.531 0.315-0.724 0.212-0.193 0.439-0.29 0.681-0.289v0c0.241 0 0.464 0.097 0.669 0.289 0.205 0.193 0.308 0.434 0.308 0.724v0c0 0.29-0.103 0.527-0.308 0.713-0.205 0.188-0.428 0.282-0.669 0.282v0c-0.241 0-0.468-0.094-0.681-0.282-0.21-0.186-0.315-0.423-0.315-0.713zM244.679 176.613v7.565h-1.539v-7.565zM246.85 184.178v-7.565h1.358c0.024 0.374 0.045 0.715 0.061 1.025 0.019 0.306 0.041 0.61 0.065 0.912v0c0.277-0.651 0.672-1.17 1.184-1.556 0.514-0.386 1.145-0.579 1.893-0.58v0c0.76 0 1.369 0.211 1.828 0.634 0.458 0.422 0.7 0.965 0.723 1.629v0 5.501h-1.556v-4.796c-0.024-0.386-0.157-0.715-0.398-0.988-0.241-0.27-0.621-0.417-1.14-0.441v0c-0.362 0-0.694 0.063-0.995 0.188-0.302 0.128-0.561 0.3-0.779 0.517-0.217 0.217-0.39 0.477-0.517 0.779-0.125 0.302-0.188 0.633-0.188 0.995v0 3.746zM256.713 176.632v-3.348h1.538v3.348h2.027v1.375h-2.027v6.171h-1.538v-6.171h-1.357v-1.375zM260.876 180.468v0c0-0.555 0.105-1.077 0.314-1.567 0.212-0.487 0.499-0.916 0.862-1.285 0.362-0.367 0.781-0.659 1.256-0.876 0.478-0.217 0.988-0.326 1.531-0.326v0c0.362 0 0.694 0.045 0.995 0.134 0.302 0.092 0.561 0.204 0.778 0.337 0.217 0.133 0.392 0.271 0.525 0.416 0.133 0.145 0.223 0.271 0.272 0.38v0l0.072-1.068h1.484v7.565h-1.556v-0.959c-0.06 0.097-0.157 0.211-0.29 0.344-0.133 0.133-0.305 0.256-0.518 0.369-0.21 0.116-0.46 0.216-0.749 0.3-0.29 0.084-0.621 0.127-0.995 0.127v0c-0.579 0-1.114-0.106-1.604-0.318-0.487-0.21-0.906-0.493-1.255-0.851-0.35-0.355-0.625-0.767-0.826-1.238-0.198-0.471-0.297-0.965-0.296-1.484zM262.432 180.378v0c0 0.35 0.063 0.676 0.188 0.977 0.128 0.302 0.3 0.561 0.518 0.778 0.217 0.217 0.477 0.388 0.778 0.514 0.302 0.128 0.633 0.192 0.995 0.192v0c0.362 0 0.696-0.064 1.003-0.192 0.309-0.125 0.574-0.3 0.796-0.525 0.224-0.222 0.397-0.481 0.518-0.778 0.121-0.294 0.181-0.617 0.181-0.966v0c0-0.35-0.06-0.673-0.181-0.97-0.121-0.294-0.293-0.55-0.518-0.768-0.222-0.217-0.487-0.39-0.796-0.517-0.306-0.125-0.641-0.188-1.003-0.188v0c-0.362 0-0.694 0.063-0.995 0.188-0.302 0.128-0.561 0.3-0.778 0.517-0.217 0.217-0.39 0.473-0.518 0.768-0.125 0.297-0.188 0.62-0.188 0.97zM270.937 173.718v0c0-0.29 0.105-0.531 0.315-0.724 0.212-0.193 0.439-0.29 0.681-0.289v0c0.241 0 0.464 0.097 0.669 0.289 0.205 0.193 0.308 0.434 0.308 0.724v0c0 0.29-0.103 0.527-0.308 0.713-0.205 0.188-0.428 0.282-0.669 0.282v0c-0.241 0-0.468-0.094-0.681-0.282-0.21-0.186-0.315-0.423-0.315-0.713zM272.675 176.613v7.565h-1.538v-7.565zM274.846 184.178v-7.565h1.358c0.024 0.374 0.045 0.715 0.061 1.025 0.019 0.306 0.041 0.61 0.065 0.912v0c0.277-0.651 0.672-1.17 1.184-1.556 0.514-0.386 1.145-0.579 1.893-0.58v0c0.76 0 1.369 0.211 1.828 0.634 0.458 0.422 0.7 0.965 0.724 1.629v0 5.501h-1.557v-4.796c-0.024-0.386-0.157-0.715-0.398-0.988-0.241-0.27-0.621-0.417-1.14-0.441v0c-0.362 0-0.694 0.063-0.995 0.188-0.302 0.128-0.561 0.3-0.779 0.517-0.217 0.217-0.39 0.477-0.517 0.779-0.125 0.302-0.188 0.633-0.188 0.995v0 3.746zM283.859 173.718v0c0-0.29 0.106-0.531 0.318-0.724 0.21-0.193 0.436-0.29 0.677-0.289v0c0.241 0 0.464 0.097 0.67 0.289 0.205 0.193 0.308 0.434 0.307 0.724v0c0 0.29-0.103 0.527-0.307 0.713-0.205 0.188-0.428 0.282-0.67 0.282v0c-0.241 0-0.467-0.094-0.677-0.282-0.212-0.186-0.319-0.423-0.318-0.713zM285.596 176.613v7.565h-1.538v-7.565zM287.768 184.178v-7.565h1.357c0.024 0.374 0.045 0.715 0.062 1.025 0.019 0.306 0.041 0.61 0.065 0.912v0c0.277-0.651 0.672-1.17 1.183-1.556 0.514-0.386 1.145-0.579 1.893-0.58v0c0.76 0 1.369 0.211 1.828 0.634 0.458 0.422 0.7 0.965 0.724 1.629v0 5.501h-1.556v-4.796c-0.024-0.386-0.157-0.715-0.399-0.988-0.241-0.27-0.621-0.417-1.14-0.441v0c-0.362 0-0.694 0.063-0.995 0.188-0.302 0.128-0.561 0.3-0.778 0.517-0.217 0.217-0.39 0.477-0.518 0.779-0.125 0.302-0.188 0.633-0.188 0.995v0 3.746zM296.472 180.414v0c0-0.567 0.103-1.095 0.308-1.585 0.205-0.487 0.483-0.91 0.833-1.267 0.35-0.355 0.76-0.635 1.23-0.84 0.471-0.205 0.971-0.308 1.502-0.308v0c0.41 0 0.776 0.054 1.097 0.163 0.319 0.109 0.586 0.235 0.803 0.38 0.217 0.145 0.39 0.286 0.518 0.424 0.125 0.14 0.206 0.24 0.242 0.3v0c0-0.169 0.012-0.347 0.037-0.535 0.024-0.186 0.036-0.363 0.036-0.533v0h1.484v7.221c0 1.255-0.368 2.232-1.104 2.932-0.736 0.7-1.731 1.05-2.986 1.05v0c-0.434 0-0.824-0.045-1.169-0.134-0.343-0.092-0.655-0.21-0.938-0.355-0.285-0.145-0.545-0.314-0.781-0.507-0.234-0.193-0.466-0.392-0.695-0.597v0l0.995-1.05c0.374 0.35 0.756 0.627 1.147 0.833 0.393 0.205 0.861 0.308 1.405 0.307v0c0.808 0 1.436-0.193 1.882-0.579 0.446-0.386 0.676-0.923 0.687-1.61v0-0.525c0-0.097 0.012-0.203 0.037-0.319 0.024-0.113 0.036-0.2 0.036-0.26v0c-0.109 0.145-0.244 0.298-0.406 0.459-0.164 0.164-0.355 0.309-0.571 0.435-0.217 0.128-0.471 0.234-0.76 0.318-0.29 0.084-0.615 0.127-0.978 0.127v0c-0.567 0-1.086-0.103-1.556-0.308-0.471-0.205-0.881-0.486-1.231-0.843-0.35-0.355-0.621-0.771-0.814-1.249-0.193-0.475-0.29-0.991-0.29-1.545zM298.029 180.378v0c0 0.35 0.063 0.676 0.188 0.977 0.128 0.302 0.3 0.561 0.518 0.778 0.217 0.217 0.477 0.388 0.778 0.514 0.302 0.128 0.633 0.192 0.995 0.192v0c0.362 0 0.697-0.064 1.006-0.192 0.306-0.125 0.572-0.3 0.797-0.525 0.222-0.222 0.393-0.481 0.513-0.778 0.121-0.294 0.181-0.617 0.181-0.966v0c0-0.35-0.06-0.673-0.181-0.97-0.121-0.294-0.292-0.55-0.513-0.768-0.224-0.217-0.49-0.39-0.797-0.517-0.309-0.125-0.644-0.188-1.006-0.188v0c-0.362 0-0.694 0.063-0.995 0.188-0.302 0.128-0.561 0.3-0.778 0.517-0.217 0.217-0.39 0.473-0.518 0.768-0.125 0.297-0.188 0.62-0.188 0.97z" fill="#dd1b1b" data-fill-palette-color="secondary"></path></g><g transform="matrix(1,0,0,1,29.33176499999999,40.065643923327926)"><svg viewBox="0 0 316.416 42.81036215334421" height="42.81036215334421" width="316.416"><g><svg viewBox="0 0 316.416 42.81036215334421" height="42.81036215334421" width="316.416"><g><svg viewBox="0 0 316.416 42.81036215334421" height="42.81036215334421" width="316.416"><g><svg viewBox="0 0 316.416 42.81036215334421" height="42.81036215334421" width="316.416"><g><svg viewBox="0 0 316.416 42.81036215334421" height="42.81036215334421" width="316.416"><g><svg viewBox="0 0 316.416 42.81036215334421" height="42.81036215334421" width="316.416"><g transform="matrix(1,0,0,1,0,0)"><svg width="316.416" viewBox="1.27 -32.4 239.44 32.4" height="42.81036215334421" data-palette-color="#117acc"><path d="M9.72 0L9.72-23.66 20.95-23.66 20.95 0 9.72 0ZM1.27-25.34L1.27-32.4 29.39-32.4 29.39-25.34 1.27-25.34ZM51.83 0L50.46-3.54 39.87-3.54 42.11-9.96 47.97-9.96 39.3-32.4 49.83-32.4 62.74 0 51.83 0ZM42.92-18.07L36.98 0 26.56 0 38.13-30.93 42.92-18.07ZM76.61 0L65.82 0 65.82-32.4 76.61-32.4 76.61 0ZM97.07-32.4L78.27-4.59 78.27-20.34 85.83-32.37 97.07-32.4ZM88.64-17.14L97.58 0 85.91 0 82.25-7.54 88.64-17.14ZM123.63 0L119.28 0 119.28-12.13 105.27-12.13 98.77-18.63 98.77-25.93 105.27-32.4 108.93-32.4 108.93-20.9 123.82-20.9 130.1-14.4 130.1-6.47 123.63 0ZM119.28-26.56L110.64-26.56 110.64-32.4 123.6-32.4 129.22-26.76 129.22-23.32 119.28-23.32 119.28-26.56ZM98.77-6.47L98.77-9.72 109.56-9.72 109.56-5.86 117.57-5.86 117.57 0 104.22 0 98.77-6.47ZM155.75-19.65L155.75-32.4 166.64-32.4 166.64 0 155.82 0 155.82-13.16 147.82-13.16 147.82-19.65 155.75-19.65ZM146.11-32.4L146.11 0 135.32 0 135.32-32.4 146.11-32.4ZM194.96 0L193.59-3.54 183-3.54 185.24-9.96 191.1-9.96 182.43-32.4 192.96-32.4 205.87 0 194.96 0ZM186.05-18.07L180.11 0 169.69 0 181.26-30.93 186.05-18.07ZM219.74 0L208.94 0 208.94-32.4 219.74-32.4 219.74 0ZM240.19-32.4L221.4-4.59 221.4-20.34 228.96-32.37 240.19-32.4ZM231.77-17.14L240.71 0 229.04 0 225.38-7.54 231.77-17.14Z" opacity="1" transform="matrix(1,0,0,1,0,0)" fill="#117acc" class="undefined-text-0" data-fill-palette-color="primary" id="text-0"></path></svg></g></svg></g></svg></g></svg></g></svg></g></svg></g></svg></g></svg></g></svg><rect width="375.07953" height="122.94165000000007" fill="none" stroke="none" visibility="hidden"></rect></g></svg></g></svg>