<svg xmlns="http://www.w3.org/2000/svg" version="1.1" xmlns:xlink="http://www.w3.org/1999/xlink" xmlns:svgjs="http://svgjs.dev/svgjs" width="1000" height="623" viewBox="0 0 1000 623"><g transform="matrix(1,0,0,1,-0.6060606060606233,0.2522267206477409)"><svg viewBox="0 0 396 247" data-background-color="#ffffff" preserveAspectRatio="xMidYMid meet" height="623" width="1000" xmlns="http://www.w3.org/2000/svg" xmlns:xlink="http://www.w3.org/1999/xlink"><defs></defs><g id="tight-bounds" transform="matrix(1,0,0,1,0.2400000000000091,-0.09999999999999432)"><svg viewBox="0 0 395.52 247.2" height="247.2" width="395.52"><g><svg></svg></g><g><svg viewBox="0 0 395.52 247.2" height="247.2" width="395.52"><g transform="matrix(2.5864978902953584, 0, 0, 2.5864978902953584, 87.31654008438818, 0.9999999999999858)"><svg xmlns="http://www.w3.org/2000/svg" xmlns:xlink="http://www.w3.org/1999/xlink" version="1.1" x="0" y="0" viewBox="7.3 2.5999999999999996 85.4 94.80000000000001" enable-background="new 0 0 100 100" xml:space="preserve" height="94.80000000000001" width="85.4" class="icon-none" data-fill-palette-color="accent" id="none"><path d="M92.7 97.4H50.1h-0.1H7.3c0.2-17.8-0.5-27.2 11-31.4C28.8 62 35 57.9 35 57.9l8.1 25.5 1.1 3.5 3.6-10.2c-8.3-11.6 0.6-12.1 2.2-12.1v0c0 0 0 0 0 0 0 0 0 0 0 0 0 0 0 0 0 0 0 0 0 0 0 0v0c1.5 0 10.5 0.6 2.2 12.1l3.6 10.2 1.1-3.5L65 57.9c0 0 6.3 4.1 16.7 8.1C93.2 70.2 92.5 79.7 92.7 97.4zM44.4 2.6c0.7 0 1.5 0.2 2.2 0.7l1.2 0.8c0.6 0.5 1.4 0.7 2.2 0.7 0.8 0 1.5-0.2 2.1-0.7l1.2-0.8c0.7-0.5 1.4-0.7 2.1-0.7 1.3 0 2.6 0.7 3.2 1.9l0.7 1.3c0.7 1.2 1.9 1.9 3.2 1.9 0.2 0 0.4 0 0.6-0.1l1.4-0.2c0.2 0 0.4-0.1 0.6-0.1 1.9 0 3.6 1.5 3.7 3.5l0.1 1.4c0.1 1.6 1.2 2.9 2.7 3.4l1.4 0.4c2.1 0.6 3.2 2.9 2.4 5l-0.6 1.3c-0.6 1.5-0.2 3.1 0.9 4.2l1.1 1c1.7 1.5 1.6 4.1 0 5.5l-1.1 1c-1.2 1-1.6 2.7-1 4.2l0.6 1.3c0.9 2-0.3 4.4-2.4 5l-1.4 0.4c-1.5 0.4-2.6 1.8-2.7 3.4l-0.1 1.4c-0.1 2-1.8 3.5-3.7 3.5-0.2 0-0.4 0-0.7-0.1L63 52.9c-0.2 0-0.4-0.1-0.6-0.1-1.3 0-2.6 0.7-3.2 1.9L58.4 56c-0.7 1.2-1.9 1.9-3.2 1.9-0.7 0-1.5-0.2-2.2-0.7l-1.2-0.8c-0.6-0.5-1.4-0.7-2.2-0.7-0.8 0-1.5 0.2-2.1 0.7l-1.2 0.8c-0.7 0.5-1.4 0.7-2.1 0.7-1.3 0-2.6-0.7-3.2-1.9l-0.7-1.3c-0.7-1.2-1.9-1.9-3.2-1.9-0.2 0-0.4 0-0.6 0.1L35 53.1c-0.2 0-0.4 0.1-0.6 0.1-1.9 0-3.6-1.5-3.7-3.5l-0.1-1.4c-0.1-1.6-1.2-2.9-2.7-3.4l-1.4-0.4c-2.1-0.6-3.2-2.9-2.4-5l0.6-1.3c0.6-1.5 0.2-3.1-0.9-4.2l-1.1-1c-1.7-1.5-1.6-4.1 0-5.5l1.1-1c1.2-1 1.6-2.7 1-4.2l-0.6-1.3c-0.9-2 0.3-4.4 2.4-5l1.4-0.4c1.5-0.4 2.6-1.8 2.7-3.4l0.1-1.4c0.1-2 1.8-3.5 3.7-3.5 0.2 0 0.4 0 0.7 0.1l1.4 0.3c0.2 0 0.4 0.1 0.6 0.1 1.3 0 2.6-0.7 3.2-1.9l0.7-1.3C41.8 3.2 43.1 2.6 44.4 2.6zM42.5 26.6L38 31l4.3 4.3 4.5 4.5 4.5-4.5 10.3-10.2-4.5-4.5L46.8 30.9 42.5 26.6z" fill="#1f1d1d" data-fill-palette-color="accent"></path></svg></g><rect width="348.05760000000004" height="81.0784224283328" fill="#ffffff" y="83.0607887858336" x="23.731199999999973" data-fill-palette-color="quaternary"></rect><g transform="matrix(1,0,0,1,39.55199999999999,96.0626185243328)"><svg viewBox="0 0 316.416 55.07476295133438" height="55.07476295133438" width="316.416"><g><svg viewBox="0 0 316.416 55.07476295133438" height="55.07476295133438" width="316.416"><g><svg viewBox="0 0 316.416 55.07476295133438" height="55.07476295133438" width="316.416"><g><svg viewBox="0 0 316.416 55.07476295133438" height="55.07476295133438" width="316.416"><g><svg viewBox="0 0 316.416 55.07476295133438" height="55.07476295133438" width="316.416"><g><svg viewBox="0 0 316.416 55.07476295133438" height="55.07476295133438" width="316.416"><g transform="matrix(1,0,0,1,0,0)"><svg width="316.416" viewBox="1.75 -36.7 254.76999999999998 44.35" height="55.07476295133438" data-palette-color="#078307"><path d="M6.8-35.5L6.8-35.5 23.5-34.95 28.2-35.05Q28.35-34 28.35-32.85 28.35-31.7 27.95-31.2 27.55-30.7 26.5-30.7L26.5-30.7Q26.4-30.7 19.45-31.35L19.45-31.35Q19.25-29.1 17.95-23.65 16.65-18.2 15.45-12 14.25-5.8 14.2-0.85L14.2-0.85Q12.25 0.15 6.2 0.15L6.2 0.15 5.85 0.15Q5.85-2.45 8.7-15.35 11.55-28.25 11.55-31.05L11.55-31.05Q11.55-31.25 11.45-31.75L11.45-31.75 9.45-31.75Q5.35-31.75 3.15-30.5L3.15-30.5Q2-32 1.75-34.9L1.75-34.9Q3.45-35.5 6.8-35.5ZM41.35-20.7L41.35-20.7Q41.45-20.8 41.9-22L41.9-22Q44.25-22 48.2-20.6L48.2-20.6Q46.95-16.45 46.2-11.93 45.45-7.4 45.45-5.48 45.45-3.55 45.85-3.55L45.85-3.55Q46.15-3.55 48.05-4.5L48.05-4.5 48.65-4.8 49.55-3.05Q49.1-2.65 48.37-2.05 47.65-1.45 45.65-0.43 43.65 0.6 42.05 0.6L42.05 0.6Q38.95 0.6 38.45-2.2L38.45-2.2Q35.25 0.6 32.67 0.6 30.1 0.6 28.32-1.4 26.55-3.4 26.55-7.7L26.55-7.7Q26.55-14.4 29.3-18.28 32.05-22.15 35.95-22.15L35.95-22.15Q38.75-22.15 41.35-20.7ZM35.65-3.65L35.65-3.65Q36.85-3.65 38.35-4.6L38.35-4.6Q38.7-11.65 40.7-18.55L40.7-18.55Q39.2-19.2 38.15-19.2L38.15-19.2Q36.35-19.2 35.07-15.68 33.8-12.15 33.8-7.9 33.8-3.65 35.65-3.65ZM56.1-33L56.1-33Q56.1-34.65 55.8-35.35L55.8-35.35Q59.7-36.7 63.15-36.7L63.15-36.7Q63.6-36.25 63.6-34.4L63.6-34.4Q63.6-30.25 60.85-18.5L60.85-18.5Q65.3-22.15 69.65-22.15L69.65-22.15Q71.6-22.15 72.95-20.95 74.3-19.75 74.3-17.45L74.3-17.45Q74.3-13.15 67.25-11.2L67.25-11.2Q68.9-6 70.15-4.15L70.15-4.15Q70.7-3.35 70.95-3.35L70.95-3.35Q71.5-3.35 73.25-4.2L73.25-4.2 73.8-4.45 74.6-2.75Q73.4-1.65 71.27-0.53 69.15 0.6 67.4 0.6L67.4 0.6Q63.5 0.6 61.95-6.5L61.95-6.5Q61.25-9.55 61.1-12.2L61.1-12.2Q64.3-12.95 65.87-14.03 67.45-15.1 67.45-16.78 67.45-18.45 65.75-18.45 64.05-18.45 60.05-15.05L60.05-15.05Q57.55-4.5 57.55-0.6L57.55-0.6Q54.8 0.2 50.4 0.2L50.4 0.2Q50.35-0.65 50.35-1.3L50.35-1.3Q50.35-3.45 53.22-16 56.1-28.55 56.1-33ZM91.29-6.55L91.29-6.55Q91.29-3.4 88.52-1.4 85.74 0.6 82.19 0.6 78.64 0.6 76.57-0.9 74.49-2.4 74.49-3.55L74.49-3.55Q74.49-4.25 76.24-5.83 77.99-7.4 79.19-7.75L79.19-7.75Q81.69-5.9 83.29-1.9L83.29-1.9Q85.14-2.05 85.14-3.65L85.14-3.65Q85.14-5.95 81.09-10.18 77.04-14.4 77.04-16.9 77.04-19.4 79.29-20.78 81.54-22.15 84.72-22.15 87.89-22.15 89.49-21.03 91.09-19.9 91.09-17.98 91.09-16.05 88.04-12.65L88.04-12.65Q88.39-12.3 88.94-11.73 89.49-11.15 90.39-9.55 91.29-7.95 91.29-6.55ZM86.49-14.4Q88.59-16.2 88.59-17.95 88.59-19.7 86.19-19.7L86.19-19.7Q85.04-19.7 84.29-19.23 83.54-18.75 83.54-18.15L83.54-18.15Q83.54-17.05 85.74-15.05L85.74-15.05 86.49-14.4ZM112.54 0.6Q110.29 0.6 108.76-1.28 107.24-3.15 107.24-5.9 107.24-8.65 107.94-15.6 108.64-22.55 108.64-25.5 108.64-28.45 107.99-30.1L107.99-30.1 105.94-33.9 106.14-34.65Q110.19-35.5 116.19-35.5L116.19-35.5Q116.69-33.6 116.69-29.65 116.69-25.7 115.71-18.18 114.74-10.65 114.74-8.18 114.74-5.7 116.29-5.7 117.84-5.7 120.26-8.35 122.69-11 124.89-15.33 127.09-19.65 127.59-23.65L127.59-23.65 122.29-26.75Q122.69-30.55 124.14-32.8L124.14-32.8Q125.44-34.8 126.29-35.35L126.29-35.35 126.64-35.6Q129.69-35.6 131.26-34 132.84-32.4 132.84-30.2L132.84-30.2Q132.84-24.75 129.59-17.45 126.34-10.15 121.49-4.78 116.64 0.6 112.54 0.6L112.54 0.6ZM132.19-8.65L132.19-8.65Q132.19-14.9 135.96-18.53 139.74-22.15 144.54-22.15L144.54-22.15Q147.49-22.15 149.39-20.7 151.29-19.25 151.29-16.82 151.29-14.4 150.06-12.75 148.84-11.1 147.09-10.2L147.09-10.2Q143.54-8.45 140.59-8L140.59-8 139.39-7.85Q139.74-3.15 143.24-3.15L143.24-3.15Q144.44-3.15 145.79-3.75 147.14-4.35 147.89-4.95L147.89-4.95 148.64-5.55 149.84-3.95Q149.44-3.4 148.24-2.5 147.04-1.6 145.99-1L145.99-1Q143.09 0.6 139.64 0.6 136.19 0.6 134.19-1.85 132.19-4.3 132.19-8.65ZM139.34-10.3Q141.89-10.75 143.39-12.45 144.89-14.15 144.89-16.85 144.89-19.55 143.29-19.55L143.29-19.55Q141.39-19.55 140.36-16.32 139.34-13.1 139.34-10.3L139.34-10.3ZM153.33 0.15L153.33 0.15 152.98 0.15Q152.88-0.25 152.88-1.68 152.88-3.1 154.23-9.35 155.58-15.6 155.58-16.5L155.58-16.5Q155.58-18.05 154.18-19.9L154.18-19.9 153.73-20.5 153.78-21.15Q156.48-21.9 162.43-21.9L162.43-21.9Q163.03-20.6 163.03-18.25L163.03-18.25Q163.58-19.15 165.33-20.65 167.08-22.15 168.93-22.15L168.93-22.15Q171.63-22.15 171.63-17.45L171.63-17.45Q171.38-17.15 170.96-16.68 170.53-16.2 169.26-15.35 167.98-14.5 166.78-14.3L166.78-14.3Q166.73-14.3 165.93-15.65 165.13-17 164.73-17L164.73-17Q163.48-16.55 162.53-15.5L162.53-15.5Q160.23-5.15 160.23-2.1L160.23-2.1Q160.23-1 160.28-0.55L160.28-0.55Q158.53 0.15 153.33 0.15ZM180.88-19.05Q180.88-16.95 179.53-11.83 178.18-6.7 178.18-5.13 178.18-3.55 178.63-3.55L178.63-3.55Q178.93-3.55 180.93-4.5L180.93-4.5 181.53-4.8 182.38-3.05Q181.93-2.65 181.18-2.05 180.43-1.45 178.38-0.43 176.33 0.6 174.58 0.6 172.83 0.6 171.83-0.48 170.83-1.55 170.83-3.38 170.83-5.2 172.08-9.88 173.33-14.55 173.33-15.95L173.33-15.95Q173.33-18.05 172.03-19.9L172.03-19.9 171.58-20.5 171.63-21.15Q174.28-21.9 180.23-21.9L180.23-21.9Q180.88-21.15 180.88-19.05ZM175.18-27.38Q174.18-28.35 174.18-30 174.18-31.65 175.56-32.9 176.93-34.15 178.73-34.15 180.53-34.15 181.53-33.15 182.53-32.15 182.53-30.53 182.53-28.9 181.11-27.65 179.68-26.4 177.93-26.4 176.18-26.4 175.18-27.38ZM194.08-21.55L198.73-21.55Q198.63-20.45 197.83-18.65L197.83-18.65Q195.93-18.85 194.08-18.85L194.08-18.85 193.88-18.85Q192.83-6.5 191.93-0.6 191.03 5.3 189.58 7.65L189.58 7.65Q187.78 7.6 185.85 7.18 183.93 6.75 183.23 6.3L183.23 6.3Q184.43 2.6 185.65-4.85 186.88-12.3 187.23-18.6L187.23-18.6Q185.83-18.5 184.13-18.25L184.13-18.25Q183.98-18.9 183.98-19.58 183.98-20.25 184.18-21.55L184.18-21.55 187.38-21.55Q187.48-25.9 187.83-28.15L187.83-28.15Q188.43-32.15 190.6-34.43 192.78-36.7 196.23-36.7L196.23-36.7Q198.43-36.7 199.7-35.73 200.98-34.75 200.98-32.65 200.98-30.55 199.08-27.23 197.18-23.9 194.08-21.55L194.08-21.55ZM194.18-24.7Q196.13-26.35 197.23-28.35 198.33-30.35 198.33-31.98 198.33-33.6 197.28-33.6L197.28-33.6Q195.08-33.6 194.48-28.55L194.48-28.55Q194.28-26.85 194.18-24.7L194.18-24.7ZM209.13-19.05Q209.13-16.95 207.78-11.83 206.43-6.7 206.43-5.13 206.43-3.55 206.88-3.55L206.88-3.55Q207.18-3.55 209.18-4.5L209.18-4.5 209.78-4.8 210.63-3.05Q210.18-2.65 209.43-2.05 208.68-1.45 206.63-0.43 204.58 0.6 202.83 0.6 201.08 0.6 200.08-0.48 199.08-1.55 199.08-3.38 199.08-5.2 200.33-9.88 201.58-14.55 201.58-15.95L201.58-15.95Q201.58-18.05 200.28-19.9L200.28-19.9 199.83-20.5 199.88-21.15Q202.53-21.9 208.48-21.9L208.48-21.9Q209.13-21.15 209.13-19.05ZM203.43-27.38Q202.43-28.35 202.43-30 202.43-31.65 203.8-32.9 205.18-34.15 206.98-34.15 208.78-34.15 209.78-33.15 210.78-32.15 210.78-30.53 210.78-28.9 209.35-27.65 207.93-26.4 206.18-26.4 204.43-26.4 203.43-27.38ZM212.17-8.65L212.17-8.65Q212.17-14.9 215.95-18.53 219.72-22.15 224.52-22.15L224.52-22.15Q227.47-22.15 229.37-20.7 231.27-19.25 231.27-16.82 231.27-14.4 230.05-12.75 228.82-11.1 227.07-10.2L227.07-10.2Q223.52-8.45 220.57-8L220.57-8 219.37-7.85Q219.72-3.15 223.22-3.15L223.22-3.15Q224.42-3.15 225.77-3.75 227.12-4.35 227.87-4.95L227.87-4.95 228.62-5.55 229.82-3.95Q229.42-3.4 228.22-2.5 227.02-1.6 225.97-1L225.97-1Q223.07 0.6 219.62 0.6 216.17 0.6 214.17-1.85 212.17-4.3 212.17-8.65ZM219.32-10.3Q221.87-10.75 223.37-12.45 224.87-14.15 224.87-16.85 224.87-19.55 223.27-19.55L223.27-19.55Q221.37-19.55 220.35-16.32 219.32-13.1 219.32-10.3L219.32-10.3ZM255.07-4.8L256.02-3.05Q251.77 0.6 248.55 0.6 245.32 0.6 244.82-2.6L244.82-2.6Q243.32-1.1 241.47-0.25 239.62 0.6 238.22 0.6L238.22 0.6Q235.82 0.6 234.12-1.5 232.42-3.6 232.42-8L232.42-8Q232.42-14.6 235.22-18.38 238.02-22.15 241.55-22.15 245.07-22.15 247.47-20.55L247.47-20.55Q249.02-28.65 249.02-33.3L249.02-33.3 248.77-35.4Q252.52-36.7 256.12-36.7L256.12-36.7Q256.52-35.85 256.52-34.75L256.52-34.75Q256.52-31.1 254.32-19.93 252.12-8.75 252.12-4.75L252.12-4.75Q252.12-3.55 252.67-3.55L252.67-3.55Q252.97-3.55 254.57-4.5L254.57-4.5 255.07-4.8ZM243.97-19.2L243.97-19.2Q242.22-19.2 240.95-15.75 239.67-12.3 239.67-8.93 239.67-5.55 240.15-4.6 240.62-3.65 241.57-3.65L241.57-3.65Q243.22-3.65 244.82-5L244.82-5Q244.97-7 247.07-18.3L247.07-18.3Q245.37-19.2 243.97-19.2Z" opacity="1" transform="matrix(1,0,0,1,0,0)" fill="#078307" class="undefined-text-0" data-fill-palette-color="primary" id="text-0"></path></svg></g></svg></g></svg></g></svg></g><g></g></svg></g></svg></g></svg></g></svg></g></svg><rect width="395.52" height="247.2" fill="none" stroke="none" visibility="hidden"></rect></g></svg></g></svg>